<mxfile host="app.diagrams.net" modified="2023-05-09T09:52:09.010Z" agent="Mozilla/5.0 (Windows NT 10.0; Win64; x64) AppleWebKit/537.36 (KHTML, like Gecko) Chrome/112.0.0.0 Safari/537.36" etag="-v53_kXCqQpDJoUrkZjL" version="21.2.9" type="github">
  <diagram name="第 1 页" id="jcO6aw5Dek93fYNTbiTH">
    <mxGraphModel dx="634" dy="531" grid="1" gridSize="10" guides="1" tooltips="1" connect="1" arrows="1" fold="1" page="1" pageScale="1" pageWidth="827" pageHeight="1169" math="0" shadow="0">
      <root>
        <mxCell id="0" />
        <mxCell id="1" parent="0" />
        <mxCell id="l6mN-yKiBBiNqE7XouGo-19" style="edgeStyle=orthogonalEdgeStyle;rounded=0;orthogonalLoop=1;jettySize=auto;html=1;entryX=0.5;entryY=0;entryDx=0;entryDy=0;" edge="1" parent="1" source="l6mN-yKiBBiNqE7XouGo-1" target="l6mN-yKiBBiNqE7XouGo-3">
          <mxGeometry relative="1" as="geometry" />
        </mxCell>
        <mxCell id="l6mN-yKiBBiNqE7XouGo-20" style="edgeStyle=orthogonalEdgeStyle;rounded=0;orthogonalLoop=1;jettySize=auto;html=1;entryX=0.5;entryY=0;entryDx=0;entryDy=0;" edge="1" parent="1" source="l6mN-yKiBBiNqE7XouGo-1" target="l6mN-yKiBBiNqE7XouGo-2">
          <mxGeometry relative="1" as="geometry">
            <Array as="points">
              <mxPoint x="380" y="240" />
              <mxPoint x="170" y="240" />
            </Array>
          </mxGeometry>
        </mxCell>
        <mxCell id="l6mN-yKiBBiNqE7XouGo-21" style="edgeStyle=orthogonalEdgeStyle;rounded=0;orthogonalLoop=1;jettySize=auto;html=1;entryX=0.5;entryY=0;entryDx=0;entryDy=0;" edge="1" parent="1" source="l6mN-yKiBBiNqE7XouGo-1" target="l6mN-yKiBBiNqE7XouGo-4">
          <mxGeometry relative="1" as="geometry">
            <Array as="points">
              <mxPoint x="380" y="240" />
              <mxPoint x="590" y="240" />
            </Array>
          </mxGeometry>
        </mxCell>
        <mxCell id="l6mN-yKiBBiNqE7XouGo-1" value="微电网功能子模块" style="rounded=1;whiteSpace=wrap;html=1;" vertex="1" parent="1">
          <mxGeometry x="280" y="150" width="200" height="50" as="geometry" />
        </mxCell>
        <mxCell id="l6mN-yKiBBiNqE7XouGo-6" style="edgeStyle=orthogonalEdgeStyle;rounded=0;orthogonalLoop=1;jettySize=auto;html=1;entryX=0;entryY=0.5;entryDx=0;entryDy=0;" edge="1" parent="1" source="l6mN-yKiBBiNqE7XouGo-2" target="l6mN-yKiBBiNqE7XouGo-5">
          <mxGeometry relative="1" as="geometry">
            <Array as="points">
              <mxPoint x="120" y="405" />
            </Array>
          </mxGeometry>
        </mxCell>
        <mxCell id="l6mN-yKiBBiNqE7XouGo-8" style="edgeStyle=orthogonalEdgeStyle;rounded=0;orthogonalLoop=1;jettySize=auto;html=1;entryX=0;entryY=0.5;entryDx=0;entryDy=0;" edge="1" parent="1" source="l6mN-yKiBBiNqE7XouGo-2" target="l6mN-yKiBBiNqE7XouGo-7">
          <mxGeometry relative="1" as="geometry">
            <Array as="points">
              <mxPoint x="120" y="495" />
            </Array>
          </mxGeometry>
        </mxCell>
        <mxCell id="l6mN-yKiBBiNqE7XouGo-2" value="监控" style="rounded=1;whiteSpace=wrap;html=1;" vertex="1" parent="1">
          <mxGeometry x="110" y="280" width="120" height="60" as="geometry" />
        </mxCell>
        <mxCell id="l6mN-yKiBBiNqE7XouGo-12" style="edgeStyle=orthogonalEdgeStyle;rounded=0;orthogonalLoop=1;jettySize=auto;html=1;entryX=0;entryY=0.5;entryDx=0;entryDy=0;" edge="1" parent="1" source="l6mN-yKiBBiNqE7XouGo-3" target="l6mN-yKiBBiNqE7XouGo-10">
          <mxGeometry relative="1" as="geometry">
            <Array as="points">
              <mxPoint x="330" y="495" />
            </Array>
          </mxGeometry>
        </mxCell>
        <mxCell id="l6mN-yKiBBiNqE7XouGo-14" style="edgeStyle=orthogonalEdgeStyle;rounded=0;orthogonalLoop=1;jettySize=auto;html=1;entryX=0;entryY=0.5;entryDx=0;entryDy=0;" edge="1" parent="1" source="l6mN-yKiBBiNqE7XouGo-3" target="l6mN-yKiBBiNqE7XouGo-9">
          <mxGeometry relative="1" as="geometry">
            <Array as="points">
              <mxPoint x="330" y="405" />
            </Array>
          </mxGeometry>
        </mxCell>
        <mxCell id="l6mN-yKiBBiNqE7XouGo-3" value="查询与统计" style="rounded=1;whiteSpace=wrap;html=1;" vertex="1" parent="1">
          <mxGeometry x="320" y="280" width="120" height="60" as="geometry" />
        </mxCell>
        <mxCell id="l6mN-yKiBBiNqE7XouGo-17" style="edgeStyle=orthogonalEdgeStyle;rounded=0;orthogonalLoop=1;jettySize=auto;html=1;entryX=0;entryY=0.5;entryDx=0;entryDy=0;" edge="1" parent="1" source="l6mN-yKiBBiNqE7XouGo-4" target="l6mN-yKiBBiNqE7XouGo-16">
          <mxGeometry relative="1" as="geometry">
            <Array as="points">
              <mxPoint x="540" y="405" />
            </Array>
          </mxGeometry>
        </mxCell>
        <mxCell id="l6mN-yKiBBiNqE7XouGo-18" style="edgeStyle=orthogonalEdgeStyle;rounded=0;orthogonalLoop=1;jettySize=auto;html=1;entryX=0;entryY=0.5;entryDx=0;entryDy=0;" edge="1" parent="1" source="l6mN-yKiBBiNqE7XouGo-4" target="l6mN-yKiBBiNqE7XouGo-15">
          <mxGeometry relative="1" as="geometry">
            <Array as="points">
              <mxPoint x="540" y="495" />
            </Array>
          </mxGeometry>
        </mxCell>
        <mxCell id="l6mN-yKiBBiNqE7XouGo-4" value="控制" style="rounded=1;whiteSpace=wrap;html=1;" vertex="1" parent="1">
          <mxGeometry x="530" y="280" width="120" height="60" as="geometry" />
        </mxCell>
        <mxCell id="l6mN-yKiBBiNqE7XouGo-5" value="系统整体监控" style="rounded=1;whiteSpace=wrap;html=1;" vertex="1" parent="1">
          <mxGeometry x="140" y="380" width="90" height="50" as="geometry" />
        </mxCell>
        <mxCell id="l6mN-yKiBBiNqE7XouGo-7" value="风、光、电、储能子系统监控" style="rounded=1;whiteSpace=wrap;html=1;" vertex="1" parent="1">
          <mxGeometry x="140" y="470" width="90" height="50" as="geometry" />
        </mxCell>
        <mxCell id="l6mN-yKiBBiNqE7XouGo-9" value="历史数据查询" style="rounded=1;whiteSpace=wrap;html=1;" vertex="1" parent="1">
          <mxGeometry x="350" y="380" width="90" height="50" as="geometry" />
        </mxCell>
        <mxCell id="l6mN-yKiBBiNqE7XouGo-10" value="历史数据展示" style="rounded=1;whiteSpace=wrap;html=1;" vertex="1" parent="1">
          <mxGeometry x="350" y="470" width="90" height="50" as="geometry" />
        </mxCell>
        <mxCell id="l6mN-yKiBBiNqE7XouGo-15" value="主动配电网控制" style="rounded=1;whiteSpace=wrap;html=1;" vertex="1" parent="1">
          <mxGeometry x="560" y="470" width="90" height="50" as="geometry" />
        </mxCell>
        <mxCell id="l6mN-yKiBBiNqE7XouGo-16" value="微电网控制" style="rounded=1;whiteSpace=wrap;html=1;" vertex="1" parent="1">
          <mxGeometry x="560" y="380" width="90" height="50" as="geometry" />
        </mxCell>
      </root>
    </mxGraphModel>
  </diagram>
</mxfile>
